<svg width="240" height="60" viewBox="0 0 240 60" fill="none" xmlns="http://www.w3.org/2000/svg">
  <!-- Icon: Hub with sound waves -->
  <g id="icon">
    <!-- Outer sound waves -->
    <path d="M8 30C8 18.95 16.95 10 28 10" stroke="#f53003" stroke-width="2.5" stroke-linecap="round" opacity="0.3"/>
    <path d="M52 30C52 18.95 43.05 10 32 10" stroke="#f53003" stroke-width="2.5" stroke-linecap="round" opacity="0.3"/>
    <path d="M8 30C8 41.05 16.95 50 28 50" stroke="#f53003" stroke-width="2.5" stroke-linecap="round" opacity="0.3"/>
    <path d="M52 30C52 41.05 43.05 50 32 50" stroke="#f53003" stroke-width="2.5" stroke-linecap="round" opacity="0.3"/>

    <!-- Middle sound waves -->
    <path d="M14 30C14 22.27 20.27 16 28 16" stroke="#f53003" stroke-width="2.5" stroke-linecap="round" opacity="0.6"/>
    <path d="M46 30C46 22.27 39.73 16 32 16" stroke="#f53003" stroke-width="2.5" stroke-linecap="round" opacity="0.6"/>
    <path d="M14 30C14 37.73 20.27 44 28 44" stroke="#f53003" stroke-width="2.5" stroke-linecap="round" opacity="0.6"/>
    <path d="M46 30C46 37.73 39.73 44 32 44" stroke="#f53003" stroke-width="2.5" stroke-linecap="round" opacity="0.6"/>

    <!-- Central hub with nodes -->
    <circle cx="30" cy="30" r="8" fill="#f53003"/>
    <circle cx="30" cy="30" r="3" fill="white"/>

    <!-- Connection nodes -->
    <circle cx="30" cy="18" r="2.5" fill="#f53003"/>
    <circle cx="30" cy="42" r="2.5" fill="#f53003"/>
    <circle cx="18" cy="30" r="2.5" fill="#f53003"/>
    <circle cx="42" cy="30" r="2.5" fill="#f53003"/>

    <!-- Connection lines -->
    <line x1="30" y1="22" x2="30" y2="18" stroke="#f53003" stroke-width="1.5"/>
    <line x1="30" y1="38" x2="30" y2="42" stroke="#f53003" stroke-width="1.5"/>
    <line x1="22" y1="30" x2="18" y2="30" stroke="#f53003" stroke-width="1.5"/>
    <line x1="38" y1="30" x2="42" y2="30" stroke="#f53003" stroke-width="1.5"/>
  </g>

  <!-- Wordmark: EchoHub -->
  <g id="wordmark" transform="translate(68, 0)">
    <!-- Echo -->
    <text x="0" y="24" font-family="system-ui, -apple-system, sans-serif" font-size="24" font-weight="700" fill="#1a1a1a">Echo</text>
    <!-- Hub -->
    <text x="0" y="46" font-family="system-ui, -apple-system, sans-serif" font-size="24" font-weight="700" fill="#f53003">Hub</text>
  </g>

  <!-- Tagline (optional, can be hidden) -->
  <text x="68" y="56" font-family="system-ui, -apple-system, sans-serif" font-size="8" font-weight="500" fill="#666" letter-spacing="0.5">UNIFIED APP MESSAGING</text>
</svg>
